<svg xmlns="http://www.w3.org/2000/svg" width="32.17" height="32.604px" viewBox="0 0 32.173 32.604"><g fill="#fff"><path d="m30.967 16.648l1.206-2.069-1.812-1.676.737-2.373-2.067-1.114-.094-2.433-2.502-.5-.604-2.55-2.513.419-1.278-2.156-2.184.591-1.811-1.677-1.933 1.132-2.296-1.242-1.308 1.843-2.692-.676-.881 2.147-2.719-.215-.367 2.402-2.559.376.097 2.477-2.165 1.049.639 2.273-1.861 1.775 1.372 2.199-1.21 1.978 1.86 1.765-.782 2.326 2.256 1.293-.186 2.304 2.504.593.459 2.325 2.484.042 1.278 2.156 2.269-.686 1.819 1.858 2.06-1.412 2.117 1.25 1.674-1.812 2.373.736 1.115-2.02 2.434-.093.647-2.278 2.407-.691-.041-2.248 2.111-1.277-.68-2.133 1.764-1.861-1.137-2.116m-14.336 14.258c-7.783.303-14.339-5.761-14.643-13.545-.301-7.785 5.764-14.341 13.547-14.643 7.785-.303 14.342 5.762 14.643 13.547.304 7.784-5.763 14.34-13.547 14.641"/><path d="m10.415 14.484c.07 0 .142-.012.208-.03l2.378 8.09c.268.9 1.58 1.584 3.162 1.584 1.581 0 2.895-.684 3.161-1.584h.001l2.377-8.09c.06.014.119.024.181.024.463 0 .838-.375.838-.839 0-.459-.375-.835-.838-.835s-.838.376-.838.835c0 .333.195.62.477.753l-2.757 5.908.443-7.959c.006 0 .013 0 .021 0 .46 0 .835-.375.835-.837 0-.462-.375-.835-.835-.835-.465 0-.839.373-.839.835 0 .382.257.702.604.804l-1.832 7.78-.886-8.573c.405-.06.718-.407.718-.829 0-.46-.375-.836-.834-.836-.465 0-.839.376-.839.836 0 .423.313.771.72.829l-.88 8.561-1.832-7.764c.354-.101.61-.423.61-.807 0-.462-.375-.835-.835-.835-.461 0-.837.373-.837.835 0 .462.376.837.837.837.003 0 .007 0 .013 0l.441 7.956-2.762-5.914c.27-.139.454-.418.454-.743 0-.459-.377-.835-.836-.835-.464 0-.836.376-.836.835.001.463.373.838.837.838m5.735 7.379c1.443 0 2.619.369 2.619.823s-1.176.823-2.619.823c-1.447 0-2.621-.369-2.621-.823s1.174-.823 2.621-.823"/><path d="m16.15 5.258c-6.482 0-11.737 5.254-11.737 11.736 0 6.481 5.255 11.736 11.737 11.736 6.483 0 11.738-5.255 11.738-11.736.001-6.482-5.254-11.736-11.738-11.736m0 23.09c-6.27 0-11.352-5.082-11.352-11.354 0-6.271 5.082-11.354 11.352-11.354 6.271 0 11.356 5.083 11.356 11.354.001 6.272-5.085 11.354-11.356 11.354"/></g><g fill="#828282"><path d="m30.967 15.648l1.206-2.069-1.812-1.676.737-2.373-2.067-1.114-.094-2.433-2.502-.5-.604-2.55-2.513.419-1.278-2.156-2.184.591-1.811-1.677-1.933 1.132-2.296-1.242-1.308 1.843-2.692-.676-.881 2.147-2.719-.215-.367 2.402-2.559.376.097 2.477-2.165 1.049.639 2.273-1.861 1.775 1.372 2.199-1.21 1.978 1.86 1.765-.782 2.326 2.256 1.293-.186 2.304 2.504.593.459 2.325 2.484.042 1.278 2.156 2.269-.686 1.819 1.858 2.06-1.412 2.117 1.25 1.674-1.812 2.373.736 1.115-2.02 2.434-.093.647-2.278 2.407-.691-.041-2.248 2.111-1.277-.68-2.133 1.764-1.861-1.137-2.116m-14.336 14.258c-7.783.303-14.339-5.761-14.643-13.545-.301-7.785 5.764-14.341 13.547-14.643 7.785-.303 14.342 5.762 14.643 13.547.304 7.784-5.763 14.34-13.547 14.641"/><path d="m10.415 13.484c.07 0 .142-.012.208-.03l2.378 8.09c.268.9 1.58 1.584 3.162 1.584 1.581 0 2.895-.684 3.161-1.584h.001l2.377-8.09c.06.014.119.024.181.024.463 0 .838-.375.838-.839 0-.459-.375-.835-.838-.835s-.838.376-.838.835c0 .333.195.62.477.753l-2.757 5.908.443-7.959c.006 0 .013 0 .021 0 .46 0 .835-.375.835-.837 0-.462-.375-.835-.835-.835-.465 0-.839.373-.839.835 0 .382.257.702.604.804l-1.832 7.78-.886-8.573c.405-.06.718-.407.718-.829 0-.46-.375-.836-.834-.836-.465 0-.839.376-.839.836 0 .423.313.771.72.829l-.88 8.561-1.832-7.764c.354-.101.61-.423.61-.807 0-.462-.375-.835-.835-.835-.461 0-.837.373-.837.835 0 .462.376.837.837.837.003 0 .007 0 .013 0l.441 7.956-2.762-5.914c.27-.139.454-.418.454-.743 0-.459-.377-.835-.836-.835-.464 0-.836.376-.836.835.001.463.373.838.837.838m5.735 7.379c1.443 0 2.619.369 2.619.823s-1.176.823-2.619.823c-1.447 0-2.621-.369-2.621-.823s1.174-.823 2.621-.823"/><path d="m16.15 4.258c-6.482 0-11.737 5.254-11.737 11.736 0 6.481 5.255 11.736 11.737 11.736 6.483 0 11.738-5.255 11.738-11.736.001-6.482-5.254-11.736-11.738-11.736m0 23.09c-6.27 0-11.352-5.082-11.352-11.354 0-6.271 5.082-11.354 11.352-11.354 6.271 0 11.356 5.083 11.356 11.354.001 6.272-5.085 11.354-11.356 11.354"/></g></svg>
