<?xml version="1.0" encoding="utf-8"?>
<!-- Generator: Adobe Illustrator 21.0.2, SVG Export Plug-In . SVG Version: 6.00 Build 0)  -->
<svg version="1.1" id="Calque_3" xmlns="http://www.w3.org/2000/svg" xmlns:xlink="http://www.w3.org/1999/xlink" x="0px" y="0px"
	 viewBox="0 0 104 104" style="enable-background:new 0 0 104 104;" xml:space="preserve">
<style type="text/css">
	.st0{fill:#FFFFFF;}
	.st1{fill:#202020;}
</style>
<g>
	<path class="st0" d="M52,2C24.4,2,2,24.4,	transition:all 1s linear;
,52c0,27.6,22.4,50,50,50s50-22.4,50-50C102,24.4,79.6,2,52,2z M60,64.5L55.4,69
		C55.5,69.1,38,52,38,52s17.5-17.1,17.4-17l4.6,4.5L47.2,52L60,64.5z"/>
	<path class="st1" d="M55.4,35C55.5,34.9,38,52,38,52s17.5,17.1,17.4,17l4.6-4.5L47.2,52L60,39.5L55.4,35z"/>
</g>
</svg>
